<?xml version="1.0" encoding="UTF-8"?>
<svg xmlns="http://www.w3.org/2000/svg" viewBox="0 0 980 715" font-family="Helvetica, Arial, sans-serif">
<rect width="980" height="715" fill="#ffffff"/>

<defs>
  <marker id="ah-grey" viewBox="0 0 8 8" refX="7" refY="4" markerWidth="5" markerHeight="5" orient="auto">
    <path d="M0,0 L8,4 L0,8 Z" fill="#9e9e9e"/>
  </marker>
  <marker id="ah-red" viewBox="0 0 8 8" refX="7" refY="4" markerWidth="5" markerHeight="5" orient="auto">
    <path d="M0,0 L8,4 L0,8 Z" fill="#ef5350"/>
  </marker>
  <marker id="ah-blue" viewBox="0 0 8 8" refX="7" refY="4" markerWidth="5" markerHeight="5" orient="auto">
    <path d="M0,0 L8,4 L0,8 Z" fill="#42a5f5"/>
  </marker>
  <marker id="ah-green" viewBox="0 0 8 8" refX="7" refY="4" markerWidth="5" markerHeight="5" orient="auto">
    <path d="M0,0 L8,4 L0,8 Z" fill="#66bb6a"/>
  </marker>
  <marker id="ah-orange" viewBox="0 0 8 8" refX="7" refY="4" markerWidth="5" markerHeight="5" orient="auto">
    <path d="M0,0 L8,4 L0,8 Z" fill="#ffa726"/>
  </marker>
</defs>

<!-- Title -->
<text x="490" y="28" text-anchor="middle" font-size="16" font-weight="bold" fill="#212121">Agentix — The 13 Kernel Seams</text>

<!-- Column headers -->
<rect x="20" y="40" width="430" height="24" rx="4" fill="#e8eaf6" stroke="#9fa8da" stroke-width="1"/>
<text x="235" y="57" text-anchor="middle" font-size="12" font-weight="bold" fill="#3949ab">Kernel</text>
<rect x="530" y="40" width="430" height="24" rx="4" fill="#fce4ec" stroke="#f48fb1" stroke-width="1"/>
<text x="745" y="57" text-anchor="middle" font-size="12" font-weight="bold" fill="#c2185b">App Implementation</text>

<!-- ═══ ROW 1 — Config (#1, grey) y=72 ═══ -->
<rect x="20" y="72" width="430" height="38" rx="4" fill="#f5f5f5" stroke="#9e9e9e" stroke-width="1"/>
<text x="32" y="86" font-size="11" font-weight="bold" fill="#424242">KernelConfig base class</text>
<text x="32" y="99" font-size="10" fill="#616161">Frozen dataclass; env-var fallback resolution</text>
<line x1="450" y1="91" x2="528" y2="91" stroke="#9e9e9e" stroke-width="1.5" marker-end="url(#ah-grey)"/>
<circle cx="490" cy="91" r="14" fill="#9e9e9e"/>
<text x="490" y="95" text-anchor="middle" font-size="11" font-weight="bold" fill="#ffffff">1</text>
<rect x="530" y="72" width="430" height="38" rx="4" fill="#f5f5f5" stroke="#9e9e9e" stroke-width="1"/>
<text x="542" y="86" font-size="11" font-weight="bold" fill="#424242">ResolvedConfig subclass</text>
<text x="542" y="99" font-size="10" fill="#616161">App appends ERP creds + per-customer registry</text>

<!-- ═══ ROW 2 — SafetyGate (#2, red) y=118 ═══ -->
<rect x="20" y="118" width="430" height="38" rx="4" fill="#ffebee" stroke="#ef5350" stroke-width="1"/>
<text x="32" y="132" font-size="11" font-weight="bold" fill="#c62828">SafetyGate middleware slot</text>
<text x="32" y="145" font-size="10" fill="#c62828">rollback / _resolve_contract / _derive_verifier_fields</text>
<line x1="450" y1="137" x2="528" y2="137" stroke="#ef5350" stroke-width="1.5" marker-end="url(#ah-red)"/>
<circle cx="490" cy="137" r="14" fill="#ef5350"/>
<text x="490" y="141" text-anchor="middle" font-size="11" font-weight="bold" fill="#ffffff">2</text>
<rect x="530" y="118" width="430" height="38" rx="4" fill="#ffebee" stroke="#ef5350" stroke-width="1"/>
<text x="542" y="132" font-size="11" font-weight="bold" fill="#c62828">OdooSafetyGate subclass</text>
<text x="542" y="145" font-size="10" fill="#c62828">xmlid-scoped rollback; rename-map memory</text>

<!-- ═══ ROW 3 — TerminationPolicy (#3, red) y=164 ═══ -->
<rect x="20" y="164" width="430" height="38" rx="4" fill="#ffebee" stroke="#ef5350" stroke-width="1"/>
<text x="32" y="178" font-size="11" font-weight="bold" fill="#c62828">TerminationPolicy protocol</text>
<text x="32" y="191" font-size="10" fill="#c62828">observe(turn) + terminal_message(turn)</text>
<line x1="450" y1="183" x2="528" y2="183" stroke="#ef5350" stroke-width="1.5" marker-end="url(#ah-red)"/>
<circle cx="490" cy="183" r="14" fill="#ef5350"/>
<text x="490" y="187" text-anchor="middle" font-size="11" font-weight="bold" fill="#ffffff">3</text>
<rect x="530" y="164" width="430" height="38" rx="4" fill="#ffebee" stroke="#ef5350" stroke-width="1"/>
<text x="542" y="178" font-size="11" font-weight="bold" fill="#c62828">MigrationTerminationPolicy</text>
<text x="542" y="191" font-size="10" fill="#c62828">Terminate once all requested models loaded</text>

<!-- ═══ ROW 4 — DispatchGuard (#4, red) y=210 ═══ -->
<rect x="20" y="210" width="430" height="38" rx="4" fill="#ffebee" stroke="#ef5350" stroke-width="1"/>
<text x="32" y="224" font-size="11" font-weight="bold" fill="#c62828">DispatchGuard callable</text>
<text x="32" y="237" font-size="10" fill="#c62828">Pre-execution veto; None = allow, result = refuse</text>
<line x1="450" y1="229" x2="528" y2="229" stroke="#ef5350" stroke-width="1.5" marker-end="url(#ah-red)"/>
<circle cx="490" cy="229" r="14" fill="#ef5350"/>
<text x="490" y="233" text-anchor="middle" font-size="11" font-weight="bold" fill="#ffffff">4</text>
<rect x="530" y="210" width="430" height="38" rx="4" fill="#ffebee" stroke="#ef5350" stroke-width="1"/>
<text x="542" y="224" font-size="11" font-weight="bold" fill="#c62828">OdooDispatchGuard</text>
<text x="542" y="237" font-size="10" fill="#c62828">Refuse drop_field on FK-protected columns</text>

<!-- ═══ ROW 5 — Tool (#5, blue) y=256 ═══ -->
<rect x="20" y="256" width="430" height="38" rx="4" fill="#e3f2fd" stroke="#42a5f5" stroke-width="1"/>
<text x="32" y="270" font-size="11" font-weight="bold" fill="#1565c0">Tool protocol + ToolRegistry</text>
<text x="32" y="283" font-size="10" fill="#1565c0">name / description / input_schema / async call()</text>
<line x1="450" y1="275" x2="528" y2="275" stroke="#42a5f5" stroke-width="1.5" marker-end="url(#ah-blue)"/>
<circle cx="490" cy="275" r="14" fill="#42a5f5"/>
<text x="490" y="279" text-anchor="middle" font-size="11" font-weight="bold" fill="#ffffff">5</text>
<rect x="530" y="256" width="430" height="38" rx="4" fill="#e3f2fd" stroke="#42a5f5" stroke-width="1"/>
<text x="542" y="270" font-size="11" font-weight="bold" fill="#1565c0">~40 domain tools</text>
<text x="542" y="283" font-size="10" fill="#1565c0">extract · load · discover · pin · diagnose · rollback …</text>

<!-- ═══ ROW 6 — ToolContext (#6, blue) y=302 ═══ -->
<rect x="20" y="302" width="430" height="38" rx="4" fill="#e3f2fd" stroke="#42a5f5" stroke-width="1"/>
<text x="32" y="316" font-size="11" font-weight="bold" fill="#1565c0">ToolContext injection</text>
<text x="32" y="329" font-size="10" fill="#1565c0">ctx.require_source() / ctx.require_target() — opaque</text>
<line x1="450" y1="321" x2="528" y2="321" stroke="#42a5f5" stroke-width="1.5" marker-end="url(#ah-blue)"/>
<circle cx="490" cy="321" r="14" fill="#42a5f5"/>
<text x="490" y="325" text-anchor="middle" font-size="11" font-weight="bold" fill="#ffffff">6</text>
<rect x="530" y="302" width="430" height="38" rx="4" fill="#e3f2fd" stroke="#42a5f5" stroke-width="1"/>
<text x="542" y="316" font-size="11" font-weight="bold" fill="#1565c0">Odoo RPC clients (source + target)</text>
<text x="542" y="329" font-size="10" fill="#1565c0">Filled per session; kernel never inspects</text>

<!-- ═══ ROW 7 — Sandbox (#7, blue) y=348 ═══ -->
<rect x="20" y="348" width="430" height="38" rx="4" fill="#e3f2fd" stroke="#42a5f5" stroke-width="1"/>
<text x="32" y="362" font-size="11" font-weight="bold" fill="#1565c0">Sandbox allowlists + agent identity</text>
<text x="32" y="375" font-size="10" fill="#1565c0">register_allowed_hosts / _binaries / _git_identity</text>
<line x1="450" y1="367" x2="528" y2="367" stroke="#42a5f5" stroke-width="1.5" marker-end="url(#ah-blue)"/>
<circle cx="490" cy="367" r="14" fill="#42a5f5"/>
<text x="490" y="371" text-anchor="middle" font-size="11" font-weight="bold" fill="#ffffff">7</text>
<rect x="530" y="348" width="430" height="38" rx="4" fill="#e3f2fd" stroke="#42a5f5" stroke-width="1"/>
<text x="542" y="362" font-size="11" font-weight="bold" fill="#1565c0">odoo.com hosts · odoo-bin binary</text>
<text x="542" y="375" font-size="10" fill="#1565c0">ludo/port-spike- branch namespace</text>

<!-- ═══ ROW 8 — Skills (#8, blue) y=394 ═══ -->
<rect x="20" y="394" width="430" height="38" rx="4" fill="#e3f2fd" stroke="#42a5f5" stroke-width="1"/>
<text x="32" y="408" font-size="11" font-weight="bold" fill="#1565c0">SkillCatalog(roots=[…])</text>
<text x="32" y="421" font-size="10" fill="#1565c0">Bundle roots; name+description surfaced cheaply</text>
<line x1="450" y1="413" x2="528" y2="413" stroke="#42a5f5" stroke-width="1.5" marker-end="url(#ah-blue)"/>
<circle cx="490" cy="413" r="14" fill="#42a5f5"/>
<text x="490" y="417" text-anchor="middle" font-size="11" font-weight="bold" fill="#ffffff">8</text>
<rect x="530" y="394" width="430" height="38" rx="4" fill="#e3f2fd" stroke="#42a5f5" stroke-width="1"/>
<text x="542" y="408" font-size="11" font-weight="bold" fill="#1565c0">skills/ directory</text>
<text x="542" y="421" font-size="10" fill="#1565c0">Bundles: SKILL.md + manifest.json + tool.py</text>

<!-- ═══ ROW 9 — Middleware (#9, green) y=440 ═══ -->
<rect x="20" y="440" width="430" height="38" rx="4" fill="#e8f5e9" stroke="#66bb6a" stroke-width="1"/>
<text x="32" y="454" font-size="11" font-weight="bold" fill="#2e7d32">Middleware — MemoryMaintain slot (pos 9)</text>
<text x="32" y="467" font-size="10" fill="#2e7d32">MIDDLEWARE_ORDER fixed; app fills only this slot</text>
<line x1="450" y1="459" x2="528" y2="459" stroke="#66bb6a" stroke-width="1.5" marker-end="url(#ah-green)"/>
<circle cx="490" cy="459" r="14" fill="#66bb6a"/>
<text x="490" y="463" text-anchor="middle" font-size="11" font-weight="bold" fill="#ffffff">9</text>
<rect x="530" y="440" width="430" height="38" rx="4" fill="#e8f5e9" stroke="#66bb6a" stroke-width="1"/>
<text x="542" y="454" font-size="11" font-weight="bold" fill="#2e7d32">MemoryMaintainMiddleware</text>
<text x="542" y="467" font-size="10" fill="#2e7d32">Episodic distillation at session end</text>

<!-- ═══ ROW 10 — Storage (#10, green) y=486 ═══ -->
<rect x="20" y="486" width="430" height="38" rx="4" fill="#e8f5e9" stroke="#66bb6a" stroke-width="1"/>
<text x="32" y="500" font-size="11" font-weight="bold" fill="#2e7d32">Storage subclassing</text>
<text x="32" y="513" font-size="10" fill="#2e7d32">SqliteStore / MinioStore / MemoryStore base</text>
<line x1="450" y1="505" x2="528" y2="505" stroke="#66bb6a" stroke-width="1.5" marker-end="url(#ah-green)"/>
<circle cx="490" cy="505" r="14" fill="#66bb6a"/>
<text x="490" y="509" text-anchor="middle" font-size="10" font-weight="bold" fill="#ffffff">10</text>
<rect x="530" y="486" width="430" height="38" rx="4" fill="#e8f5e9" stroke="#66bb6a" stroke-width="1"/>
<text x="542" y="500" font-size="11" font-weight="bold" fill="#2e7d32">LudoSqliteStore</text>
<text x="542" y="513" font-size="10" fill="#2e7d32">Adds diagnoses + applied_memory_rules tables</text>

<!-- ═══ ROW 11 — Events (#11, green) y=532 ═══ -->
<rect x="20" y="532" width="430" height="38" rx="4" fill="#e8f5e9" stroke="#66bb6a" stroke-width="1"/>
<text x="32" y="546" font-size="11" font-weight="bold" fill="#2e7d32">Events bus sink + SessionEvent envelope</text>
<text x="32" y="559" font-size="10" fill="#2e7d32">global bus; 6-field neutral envelope (Contract B)</text>
<line x1="450" y1="551" x2="528" y2="551" stroke="#66bb6a" stroke-width="1.5" marker-end="url(#ah-green)"/>
<circle cx="490" cy="551" r="14" fill="#66bb6a"/>
<text x="490" y="555" text-anchor="middle" font-size="10" font-weight="bold" fill="#ffffff">11</text>
<rect x="530" y="532" width="430" height="38" rx="4" fill="#e8f5e9" stroke="#66bb6a" stroke-width="1"/>
<text x="542" y="546" font-size="11" font-weight="bold" fill="#2e7d32">NATS JetStream forwarder</text>
<text x="542" y="559" font-size="10" fill="#2e7d32">Republishes to ludo.events.&lt;session_id&gt;</text>

<!-- ═══ ROW 12 — Drivers (#12, orange) y=578 ═══ -->
<rect x="20" y="578" width="430" height="38" rx="4" fill="#fff3e0" stroke="#ffa726" stroke-width="1"/>
<text x="32" y="592" font-size="11" font-weight="bold" fill="#e65100">DriverRegistry + DriverSpec + lease path</text>
<text x="32" y="605" font-size="10" fill="#e65100">register() / register_driver_factory() / lease()</text>
<line x1="450" y1="597" x2="528" y2="597" stroke="#ffa726" stroke-width="1.5" marker-end="url(#ah-orange)"/>
<circle cx="490" cy="597" r="14" fill="#ffa726"/>
<text x="490" y="601" text-anchor="middle" font-size="10" font-weight="bold" fill="#ffffff">12</text>
<rect x="530" y="578" width="430" height="38" rx="4" fill="#fff3e0" stroke="#ffa726" stroke-width="1"/>
<text x="542" y="592" font-size="11" font-weight="bold" fill="#e65100">agentix-driver-odoo (type="erp")</text>
<text x="542" y="605" font-size="10" fill="#e65100">Session-leased; vault-decrypted creds per job</text>

<!-- ═══ ROW 13 — Idempotency (#13, orange, dashed = design seam) y=624 ═══ -->
<rect x="20" y="624" width="430" height="38" rx="4" fill="#fff3e0" stroke="#ffa726" stroke-width="1" stroke-dasharray="5,3"/>
<text x="32" y="638" font-size="11" font-weight="bold" fill="#e65100">ResumableSession protocol (design seam)</text>
<text x="32" y="651" font-size="10" fill="#e65100">resume_key(job, model, idx) + is_idempotent_write()</text>
<line x1="450" y1="643" x2="528" y2="643" stroke="#ffa726" stroke-width="1.5" stroke-dasharray="4,3" marker-end="url(#ah-orange)"/>
<circle cx="490" cy="643" r="14" fill="#ffa726" opacity="0.7"/>
<text x="490" y="647" text-anchor="middle" font-size="10" font-weight="bold" fill="#ffffff">13</text>
<rect x="530" y="624" width="430" height="38" rx="4" fill="#fff3e0" stroke="#ffa726" stroke-width="1" stroke-dasharray="5,3"/>
<text x="542" y="638" font-size="11" font-weight="bold" fill="#e65100">Record census</text>
<text x="542" y="651" font-size="10" fill="#e65100">Deterministic key; redelivered writes become no-op</text>

<!-- ═══ LEGEND ═══ -->
<rect x="20" y="676" width="940" height="28" rx="4" fill="#fafafa" stroke="#e0e0e0" stroke-width="1"/>
<rect x="32" y="685" width="12" height="12" rx="2" fill="#9e9e9e"/>
<text x="49" y="695" font-size="10" fill="#424242">Config</text>
<rect x="108" y="685" width="12" height="12" rx="2" fill="#ef5350"/>
<text x="125" y="695" font-size="10" fill="#424242">Safety / Dispatch</text>
<rect x="248" y="685" width="12" height="12" rx="2" fill="#42a5f5"/>
<text x="265" y="695" font-size="10" fill="#424242">Tools / Skills</text>
<rect x="368" y="685" width="12" height="12" rx="2" fill="#66bb6a"/>
<text x="385" y="695" font-size="10" fill="#424242">Runtime</text>
<rect x="452" y="685" width="12" height="12" rx="2" fill="#ffa726"/>
<text x="469" y="695" font-size="10" fill="#424242">Drivers / Idempotency</text>
<rect x="622" y="685" width="12" height="12" rx="2" fill="#ffa726" opacity="0.7" stroke="#ffa726" stroke-width="1" stroke-dasharray="3,2"/>
<text x="639" y="695" font-size="10" fill="#616161">Dashed = design seam (stub, not yet wired)</text>
</svg>
